<?xml version="1.0" encoding="utf-8"?>
<!-- Generator: Adobe Illustrator 26.0.3, SVG Export Plug-In . SVG Version: 6.00 Build 0)  -->
<svg version="1.1" id="Lag_1" xmlns="http://www.w3.org/2000/svg" xmlns:xlink="http://www.w3.org/1999/xlink" x="0px" y="0px"
	 viewBox="0 0 991 448" style="enable-background:new 0 0 991 448;" xml:space="preserve">
<path d="M203.1,84.5c-10.8,12.8-28.1,22.9-45.4,21.5c-2.2-17.3,6.3-35.7,16.2-47.1c10.8-13.2,29.8-22.5,45.1-23.3
	C220.8,53.6,213.8,71.3,203.1,84.5 M218.8,109.4c-25.1-1.4-46.5,14.2-58.4,14.2c-12.1,0-30.3-13.5-50.1-13.2
	c-25.8,0.4-49.8,15-62.9,38.2c-27,46.5-7,115.4,19.1,153.3c12.8,18.8,28.1,39.3,48.3,38.6c19.1-0.7,26.7-12.4,49.8-12.4
	c23.3,0,29.9,12.4,50.1,12.1c20.9-0.4,34.1-18.8,46.9-37.5c14.6-21.3,20.6-42,20.9-43.1c-0.4-0.4-40.4-15.7-40.7-61.8
	c-0.4-38.6,31.6-57,33-58.1C256.7,113,228.5,110.1,218.8,109.4 M363.6,57.1v281.1h43.6v-96.1h60.4c55.2,0,93.9-37.9,93.9-92.7
	s-38-92.3-92.5-92.3L363.6,57.1z M407.2,93.8h50.3c37.9,0,59.5,20.2,59.5,55.7s-21.6,55.9-59.7,55.9h-50.1L407.2,93.8z M641.3,340.3
	c27.4,0,52.8-13.9,64.4-35.9h0.9v33.7h40.4V198.2c0-40.6-32.5-66.7-82.4-66.7c-46.3,0-80.6,26.5-81.9,62.9H622
	c3.2-17.3,19.3-28.7,41.3-28.7c26.7,0,41.7,12.4,41.7,35.3v15.5l-54.5,3.2c-50.7,3.1-78.1,23.8-78.1,59.9
	C572.4,316.2,600.7,340.3,641.3,340.3z M653,307c-23.3,0-38-11.2-38-28.3c0-17.7,14.2-27.9,41.5-29.6l48.5-3.1v15.9
	C704.9,288.2,682.6,307,653,307z M800.8,414.6c42.6,0,62.6-16.2,80.1-65.5l76.6-214.9h-44.4l-51.4,166.1h-0.9l-51.4-166.1h-45.6
	l73.9,204.7l-4,12.4c-6.7,21.1-17.5,29.2-36.8,29.2c-3.4,0-10.1-0.4-12.8-0.7v33.7C786.8,414.3,797.6,414.6,800.8,414.6L800.8,414.6
	z"/>
</svg>
